<svg width="40" height="40" viewBox="0 0 40 40" fill="none" xmlns="http://www.w3.org/2000/svg">
<path d="M36.437 19.6543C36.4074 10.6068 29.0621 3.28284 20.013 3.28284C10.9606 3.28284 3.61688 10.6068 3.58733 19.6543L3.58569 19.6116V19.7955L3.58733 19.7577C3.61524 28.8068 10.9589 36.1341 20.013 36.1341C29.0637 36.1341 36.4074 28.8101 36.437 19.7626L36.4386 19.8053V19.7167V19.7085V19.6116L36.437 19.6543ZM15.5368 27.1769C11.4185 27.1769 8.07168 23.8301 8.07168 19.7101C8.07168 15.5902 11.4185 12.2433 15.5368 12.2433C17.5558 12.2433 19.2431 12.9836 20.5366 14.1933L18.4109 16.2533C17.8775 15.7461 16.9353 15.1486 15.5368 15.1486C13.0665 15.1486 11.0508 17.202 11.0508 19.72C11.0508 22.2362 13.0681 24.2897 15.5368 24.2897C18.3962 24.2897 19.45 22.3101 19.6436 21.1381H15.5335V18.351H22.5178C22.6261 18.8205 22.7065 19.2604 22.7065 19.8808C22.7065 24.1436 19.8472 27.1769 15.5368 27.1769ZM32.7027 20.4553H29.717V23.441H27.4781V20.4553H24.4907V18.2164H27.4781V15.229H29.717V18.2164H32.7027V20.4553Z" fill="#000046"/>
</svg>
